<?xml version="1.0" standalone="no"?>
<!DOCTYPE svg PUBLIC "-//W3C//DTD SVG 20010904//EN"
 "http://www.w3.org/TR/2001/REC-SVG-20010904/DTD/svg10.dtd">
<svg version="1.0" xmlns="http://www.w3.org/2000/svg"
 width="512.000000pt" height="512.000000pt" viewBox="0 0 512.000000 512.000000"
 preserveAspectRatio="xMidYMid meet">
<metadata>
Created by potrace 1.14, written by Peter Selinger 2001-2017
</metadata>
<g transform="translate(0.000000,512.000000) scale(0.100000,-0.100000)"
fill="#000000" stroke="none">
<path d="M2408 5115 c-1 -1 -30 -6 -63 -10 -33 -3 -78 -10 -100 -15 -22 -5
-56 -12 -75 -15 -66 -11 -275 -87 -365 -132 -102 -51 -236 -136 -310 -196 -55
-45 -212 -200 -262 -260 -79 -94 -231 -351 -255 -432 -4 -11 -16 -45 -27 -75
-20 -50 -47 -146 -57 -195 -2 -11 -6 -31 -9 -45 -28 -125 -38 -374 -21 -520
11 -93 43 -240 73 -329 52 -155 93 -239 214 -439 9 -15 26 -45 39 -67 12 -22
74 -130 138 -240 63 -110 124 -216 134 -235 11 -19 53 -91 93 -160 39 -69 83
-145 97 -170 25 -44 414 -721 466 -810 15 -25 36 -61 47 -81 16 -29 167 -293
210 -367 6 -9 31 -53 56 -97 25 -44 57 -101 71 -126 36 -65 52 -89 58 -89 5 0
26 34 98 160 71 125 123 217 131 230 12 19 286 496 322 559 14 25 87 152 162
282 75 130 144 251 155 270 53 95 215 375 222 384 4 6 21 35 37 65 57 104 294
513 314 541 10 15 19 31 19 36 0 5 11 24 24 42 61 82 167 368 191 511 3 19 7
46 10 60 36 199 23 472 -31 685 -108 418 -372 782 -739 1018 -78 50 -202 114
-285 147 -58 24 -236 77 -280 85 -14 2 -56 9 -95 16 -63 10 -398 22 -407 14z
m341 -1091 c166 -48 329 -196 399 -361 37 -87 50 -165 47 -275 -3 -118 -25
-194 -86 -298 -118 -200 -338 -323 -564 -314 -118 4 -172 18 -270 67 -214 106
-343 308 -350 547 -6 201 57 354 201 491 164 154 399 208 623 143z"/>
</g>
</svg>
